<svg xmlns="http://www.w3.org/2000/svg" xmlns:xlink="http://www.w3.org/1999/xlink" viewBox="0 0 211.01 42.47"><defs><style>.cls-1{fill:url(#Degradado_sin_nombre_6);}.cls-2{fill:url(#Degradado_sin_nombre_6-2);}.cls-3{fill:url(#Degradado_sin_nombre_6-3);}.cls-4{fill:url(#Degradado_sin_nombre_6-4);}.cls-5{fill:url(#Degradado_sin_nombre_6-5);}.cls-6{fill:url(#Degradado_sin_nombre_6-6);}.cls-7{fill:url(#Degradado_sin_nombre_6-7);}.cls-8{fill:url(#Degradado_sin_nombre_6-8);}</style><linearGradient id="Degradado_sin_nombre_6" x1="50.94" y1="87.18" x2="210.51" y2="-14.82" gradientUnits="userSpaceOnUse"><stop offset="0" stop-color="#65a9c8"/><stop offset="0.34" stop-color="#6794c6"/><stop offset="0.71" stop-color="#6985c4"/><stop offset="1" stop-color="#6a7fc3"/></linearGradient><linearGradient id="Degradado_sin_nombre_6-2" x1="12.16" y1="26.51" x2="171.73" y2="-75.49" xlink:href="#Degradado_sin_nombre_6"/><linearGradient id="Degradado_sin_nombre_6-3" x1="21.78" y1="41.56" x2="181.35" y2="-60.44" xlink:href="#Degradado_sin_nombre_6"/><linearGradient id="Degradado_sin_nombre_6-4" x1="31.01" y1="56" x2="190.58" y2="-46" xlink:href="#Degradado_sin_nombre_6"/><linearGradient id="Degradado_sin_nombre_6-5" x1="33.65" y1="60.14" x2="193.22" y2="-41.86" xlink:href="#Degradado_sin_nombre_6"/><linearGradient id="Degradado_sin_nombre_6-6" x1="36.65" y1="64.83" x2="196.22" y2="-37.17" xlink:href="#Degradado_sin_nombre_6"/><linearGradient id="Degradado_sin_nombre_6-7" x1="2.55" y1="11.47" x2="162.12" y2="-90.52" xlink:href="#Degradado_sin_nombre_6"/><linearGradient id="Degradado_sin_nombre_6-8" x1="10.88" y1="24.51" x2="170.45" y2="-77.49" xlink:href="#Degradado_sin_nombre_6"/></defs><title>simplitec-logo</title><g id="Capa_2" data-name="Capa 2"><g id="_Layer_" data-name="&lt;Layer&gt;"><path class="cls-1" d="M211,22.1a3,3,0,0,1-.28,1.31,15.91,15.91,0,0,1-3.11,4.49,15.6,15.6,0,0,1-4.8,3.34,15.06,15.06,0,0,1-6.26,1.27,14.4,14.4,0,0,1-6.2-1.31,14.18,14.18,0,0,1-4.73-3.58,16.09,16.09,0,0,1-3-5.2,18.51,18.51,0,0,1-1-6.2,18,18,0,0,1,1-6.14,16.38,16.38,0,0,1,3-5.19,14.45,14.45,0,0,1,4.72-3.58A14.14,14.14,0,0,1,196.5,0a15.44,15.44,0,0,1,6.17,1.21,15.86,15.86,0,0,1,4.81,3.2,15.7,15.7,0,0,1,3.19,4.38A2.68,2.68,0,0,1,211,10a2.78,2.78,0,0,1-.73,1.86,2.32,2.32,0,0,1-1.8.88,3.33,3.33,0,0,1-1.61-.39,2.61,2.61,0,0,1-1.17-1.22,10.18,10.18,0,0,0-3.49-3.94,9.7,9.7,0,0,0-5.67-1.64A8.47,8.47,0,0,0,191.56,7a9.75,9.75,0,0,0-3.25,3.89,12.4,12.4,0,0,0-1.16,5.36,12.57,12.57,0,0,0,1.15,5.38,9.41,9.41,0,0,0,3.24,3.86,8.59,8.59,0,0,0,5,1.42,9.8,9.8,0,0,0,4-.79A10.44,10.44,0,0,0,203.66,24a9.81,9.81,0,0,0,2-2.85,2.7,2.7,0,0,1,2.65-1.65,2.6,2.6,0,0,1,1.85.78A2.51,2.51,0,0,1,211,22.1ZM143.85.47H122.72a2.63,2.63,0,0,0-2,.8,2.75,2.75,0,0,0,0,3.93,2.75,2.75,0,0,0,2,.83h7.82l-.24,23.58a2.61,2.61,0,0,0,.81,1.94,2.79,2.79,0,0,0,3.92,0,2.64,2.64,0,0,0,.83-1.95L136.1,6h7.76a2.72,2.72,0,0,0,2-.81,2.66,2.66,0,0,0,.83-2,2.68,2.68,0,0,0-.81-2A2.67,2.67,0,0,0,143.85.47Zm30.34,0H153.06a2.65,2.65,0,0,0-2,.8,2.66,2.66,0,0,0-.83,2,2.67,2.67,0,0,0,.8,2,2.76,2.76,0,0,0,2,.83h21.15a2.68,2.68,0,0,0,2-.81,2.66,2.66,0,0,0,.83-2,2.63,2.63,0,0,0-.8-2A2.69,2.69,0,0,0,174.19.47ZM174,26.73H152.91a2.72,2.72,0,0,0-2,.81,2.76,2.76,0,0,0,0,3.93,2.72,2.72,0,0,0,2,.83h21.15a2.68,2.68,0,0,0,2-.81,2.71,2.71,0,0,0,.84-2,2.68,2.68,0,0,0-.81-2A2.73,2.73,0,0,0,174,26.73Zm.08-13.13H153a2.71,2.71,0,0,0-2,.81,2.64,2.64,0,0,0-.83,1.95,2.78,2.78,0,0,0,2.79,2.8h21.15a2.63,2.63,0,0,0,2-.8,2.78,2.78,0,0,0-2-4.76Z"/><path class="cls-2" d="M26,5.68a3.1,3.1,0,0,1-1-2.35A3,3,0,0,1,26,1,3.63,3.63,0,0,1,28.47.06,3.48,3.48,0,0,1,30.91,1a3.06,3.06,0,0,1,1,2.33,3.15,3.15,0,0,1-1,2.35,3.41,3.41,0,0,1-2.44,1,3.52,3.52,0,0,1-2.5-1m5.18,8.45V29.61a2.71,2.71,0,0,1-5.41,0V14.13a2.71,2.71,0,1,1,5.41,0"/><path class="cls-3" d="M59.6,16.3a4,4,0,0,0-3.09,1.27,5.18,5.18,0,0,0-1.16,3.6v8.44a2.7,2.7,0,0,1-2.7,2.7h0a2.71,2.71,0,0,1-2.71-2.7V20.82a5,5,0,0,0-1.11-3.31,3.49,3.49,0,0,0-2.73-1.21,4.37,4.37,0,0,0-3.13,1.18,4.86,4.86,0,0,0-1.26,3.69v8.44a2.7,2.7,0,0,1-2.7,2.7h-.05a2.7,2.7,0,0,1-2.7-2.7V14.13a2.71,2.71,0,0,1,2.7-2.71H39a2.71,2.71,0,0,1,2.7,2.71v.38a5.41,5.41,0,0,1,2.53-2.62A7.65,7.65,0,0,1,47.66,11q5,.27,6.66,3.89A7.15,7.15,0,0,1,60.9,11a7.47,7.47,0,0,1,5.95,2.41q2.1,2.41,2.1,7v9.24a2.7,2.7,0,0,1-2.71,2.7h0a2.7,2.7,0,0,1-2.7-2.7V21a5,5,0,0,0-1.1-3.42A3.63,3.63,0,0,0,59.6,16.3"/><path class="cls-4" d="M79.19,14.15v.09a5.58,5.58,0,0,1,2.62-2.39A8.92,8.92,0,0,1,85.72,11a9.71,9.71,0,0,1,7.2,3,10.68,10.68,0,0,1,3,7.83,10.76,10.76,0,0,1-3,7.89,9.79,9.79,0,0,1-7.23,3,9,9,0,0,1-3.91-.85,5.5,5.5,0,0,1-2.62-2.37v10.2a2.73,2.73,0,1,1-5.45,0V14.15a2.73,2.73,0,1,1,5.45,0m.09,7.78a5.36,5.36,0,0,0,1.64,4.12,5.54,5.54,0,0,0,3.91,1.52A5.36,5.36,0,0,0,88.74,26a5.48,5.48,0,0,0,1.59-4.08,5.58,5.58,0,0,0-1.61-4.11,5.31,5.31,0,0,0-3.89-1.61,5.41,5.41,0,0,0-3.94,1.59,5.57,5.57,0,0,0-1.61,4.13"/><path class="cls-5" d="M99.68,29.61V2.77a2.7,2.7,0,0,1,2.7-2.71h.05a2.71,2.71,0,0,1,2.71,2.71V29.61a2.71,2.71,0,0,1-2.71,2.7h-.05a2.7,2.7,0,0,1-2.7-2.7"/><path class="cls-6" d="M110.41,5.68a3.14,3.14,0,0,1-1-2.35A3,3,0,0,1,110.44,1a3.62,3.62,0,0,1,2.48-.94,3.5,3.5,0,0,1,2.44.94,3.06,3.06,0,0,1,1,2.33,3.15,3.15,0,0,1-1,2.35,3.43,3.43,0,0,1-2.44,1,3.55,3.55,0,0,1-2.51-1m5.19,8.45V29.61a2.71,2.71,0,0,1-5.41,0V14.13a2.71,2.71,0,1,1,5.41,0"/><path class="cls-7" d="M20.4,5.46a8.49,8.49,0,0,0-2.11-2.79A11.11,11.11,0,0,0,10.7.06,11.44,11.44,0,0,0,3.11,2.67,8.36,8.36,0,0,0,0,9.38q0,5.74,6.29,8.26a4.84,4.84,0,0,1,0-2.82A5,5,0,0,1,8,12.26a3.3,3.3,0,0,1-2.1-3,3.23,3.23,0,0,1,1.36-2.7,5.41,5.41,0,0,1,3.39-1,5.08,5.08,0,0,1,3.48,1.13A3.71,3.71,0,0,1,15,8,2.65,2.65,0,0,0,16.12,9.2a3.07,3.07,0,0,0,1.61.45A3,3,0,0,0,20.4,5.46"/><path class="cls-8" d="M22.23,23.72a8.26,8.26,0,0,1-3.39,6.57,12.5,12.5,0,0,1-7.77,2.43A12,12,0,0,1,2.86,29.9,9.69,9.69,0,0,1,.64,27.11a2.89,2.89,0,0,1,2.59-4.17h.15A3,3,0,0,1,6,24.65a4.64,4.64,0,0,0,1.13,1.44,5.65,5.65,0,0,0,3.92,1.32,6,6,0,0,0,3.73-1.09,3.57,3.57,0,0,0,1.53-2.74,3.28,3.28,0,0,0-1-2.63,7.88,7.88,0,0,0-3.39-1.7L11,19H11a2.75,2.75,0,0,1,1.45-5.3h0l.23.07.93.27c3.29.9,5.59,2.2,6.92,3.93a8.22,8.22,0,0,1,1.75,5.76"/></g></g></svg>